<svg width="30" height="30" viewBox="0 0 30 30" fill="none" xmlns="http://www.w3.org/2000/svg">
<path d="M26.875 10.61V21.0938C26.875 22.9063 25.4063 24.375 23.5938 24.375H6.40625C5.53601 24.375 4.70141 24.0293 4.08606 23.4139C3.4707 22.7986 3.125 21.964 3.125 21.0938V10.61L14.6238 16.935C14.8581 17.0638 15.1425 17.0638 15.3762 16.935L26.875 10.6094V10.61ZM23.5938 5.625C24.4503 5.62508 25.2729 5.9601 25.8857 6.55849C26.4986 7.15687 26.8532 7.9712 26.8738 8.8275L15 15.3587L3.12625 8.82688L3.1275 8.77062C3.1625 7.92454 3.52325 7.12474 4.13432 6.53849C4.74538 5.95223 5.55944 5.62492 6.40625 5.625H23.5938Z" fill="#E8C300"/>
</svg>
