<svg width="23" height="30" viewBox="0 0 23 30" fill="none" xmlns="http://www.w3.org/2000/svg">
<g clip-path="url(#clip0_2077_15)">
<path d="M10.0937 29.4C1.58 17.0525 0 15.7862 0 11.25C0 5.03625 5.03625 0 11.25 0C17.4638 0 22.5 5.03625 22.5 11.25C22.5 15.7862 20.92 17.05 12.4063 29.395C12.277 29.5812 12.1046 29.7334 11.9038 29.8387C11.7031 29.944 11.4799 29.9992 11.2532 29.9997C11.0265 30.0002 10.803 29.9459 10.6018 29.8415C10.4006 29.7371 10.2276 29.5856 10.0975 29.4L10.095 29.395L10.0937 29.4ZM11.25 15.9375C12.4932 15.9375 13.6855 15.4436 14.5646 14.5646C15.4436 13.6855 15.9375 12.4932 15.9375 11.25C15.9375 10.0068 15.4436 8.81451 14.5646 7.93544C13.6855 7.05636 12.4932 6.5625 11.25 6.5625C10.0068 6.5625 8.81451 7.05636 7.93544 7.93544C7.05636 8.81451 6.5625 10.0068 6.5625 11.25C6.5625 12.4932 7.05636 13.6855 7.93544 14.5646C8.81451 15.4436 10.0068 15.9375 11.25 15.9375V15.9375Z" fill="#E8C300"/>
</g>
<defs>
<clipPath id="clip0_2077_15">
<rect width="22.5" height="30" fill="white"/>
</clipPath>
</defs>
</svg>
