<svg width="30" height="30" viewBox="0 0 30 30" fill="none" xmlns="http://www.w3.org/2000/svg">
<path d="M20.1375 10.9408L18.0375 8.84084C17.7582 8.55799 17.567 8.20014 17.4871 7.81072C17.4072 7.4213 17.4421 7.01706 17.5875 6.64709L18.6094 4.08771C18.7611 3.71383 19.0202 3.39324 19.3539 3.16634C19.6875 2.93945 20.0809 2.8164 20.4844 2.81271H25.1719C25.4464 2.81489 25.7176 2.87259 25.9692 2.98234C26.2207 3.09208 26.4475 3.25161 26.6358 3.45132C26.8242 3.65102 26.9701 3.88676 27.0649 4.14436C27.1597 4.40196 27.2014 4.67608 27.1875 4.95021C26.0719 22.8846 10.8844 26.5033 5.07188 27.1877C4.78645 27.2195 4.49752 27.1905 4.22411 27.1025C3.9507 27.0146 3.699 26.8698 3.48557 26.6776C3.27214 26.4855 3.10182 26.2503 2.98582 25.9876C2.86981 25.7248 2.81075 25.4405 2.81251 25.1533L2.81251 20.6252C2.8137 20.2211 2.93576 19.8267 3.16297 19.4925C3.39019 19.1584 3.71217 18.8999 4.08751 18.7502L6.64688 17.7283C7.01538 17.5781 7.41999 17.5398 7.81014 17.6181C8.2003 17.6965 8.55872 17.8881 8.84063 18.169L10.9406 20.269C10.9406 20.269 19.125 19.0596 20.1375 10.9408Z" fill="#E8C300"/>
</svg>
